<svg height="512" viewBox="0 0 64 64" width="512" xmlns="http://www.w3.org/2000/svg"><g id="Layer_15" data-name="Layer 15"><path d="m12 42h40v18h-40z" fill="#c18e5c"/><g fill="#cda57d"><path d="m2 36h60v6h-60z"/><path d="m52 42h6v20h-6z"/><path d="m6 42h6v20h-6z"/></g><path d="m38 32h22v4h-22z" fill="#a0a8b2"/><path d="m40 32v-12a2 2 0 0 1 2-2h14a2 2 0 0 1 2 2v12z" fill="#c1c8d1"/><path d="m26 26h8v10h-8z" fill="#c1c8d1"/><path d="m4 32h10v4h-10z" fill="#f7d881"/><path d="m2 28h10v4h-10z" fill="#4472b0"/><circle cx="49" cy="25" fill="#ebf7fe" r="3"/><circle cx="12" cy="12" fill="#c1c8d1" r="10"/><path d="m62 35h-1v-3a1 1 0 0 0 -1-1h-1v-11a3 3 0 0 0 -3-3h-14a3 3 0 0 0 -3 3v11h-1a1 1 0 0 0 -1 1v3h-2v-9a1 1 0 0 0 -1-1h-8a1 1 0 0 0 -1 1v1h-1a3 3 0 0 0 0 6h1v2h-10v-3a1 1 0 0 0 -1-1h-1v-3a1 1 0 0 0 -1-1h-10a1 1 0 0 0 -1 1v4a1 1 0 0 0 1 1h1v2h-1a1 1 0 0 0 -1 1v6a1 1 0 0 0 1 1h3v19a1 1 0 0 0 1 1h6a1 1 0 0 0 1-1v-1h38v1a1 1 0 0 0 1 1h6a1 1 0 0 0 1-1v-19h3a1 1 0 0 0 1-1v-6a1 1 0 0 0 -1-1zm-21-15a1 1 0 0 1 1-1h14a1 1 0 0 1 1 1v11h-16zm-2 13h20v2h-20zm-15-2a1 1 0 0 1 0-2h1v2zm3-4h6v8h-6zm-24 2h8v2h-8zm2 4h8v2h-8zm2 28v-18h4v18zm6-2v-16h38v16zm44 2h-4v-18h4zm4-20h-58v-4h58z"/><path d="m49 21a4 4 0 1 0 4 4 4 4 0 0 0 -4-4zm0 6a2 2 0 1 1 2-2 2 2 0 0 1 -2 2z"/><path d="m27.59 19a1.42 1.42 0 0 1 0 2l-1.3 1.29 1.42 1.42 1.29-1.3a3.4 3.4 0 0 0 0-4.82l-.59-.59a1.43 1.43 0 0 1 -.41-1v-1h-2v1a3.36 3.36 0 0 0 1 2.41z"/><path d="m31.59 19a1.42 1.42 0 0 1 0 2l-1.3 1.29 1.42 1.42 1.29-1.3a3.4 3.4 0 0 0 0-4.82l-.59-.59a1.43 1.43 0 0 1 -.41-1v-1h-2v1a3.36 3.36 0 0 0 1 2.41z"/><path d="m12 23a11 11 0 1 0 -11-11 11 11 0 0 0 11 11zm-7-16.61 1.29 1.32 1.42-1.42-1.32-1.29a8.89 8.89 0 0 1 4.61-1.94v1.94h2v-1.94a8.89 8.89 0 0 1 4.61 1.94l-1.32 1.29 1.42 1.42 1.29-1.32a8.89 8.89 0 0 1 1.94 4.61h-1.94v2h1.94a8.89 8.89 0 0 1 -1.94 4.61l-1.31-1.32-1.42 1.42 1.34 1.29a8.89 8.89 0 0 1 -4.61 1.94v-1.94h-2v1.94a8.89 8.89 0 0 1 -4.61-1.94l1.32-1.31-1.42-1.4-1.29 1.32a8.89 8.89 0 0 1 -1.94-4.61h1.94v-2h-1.94a8.89 8.89 0 0 1 1.94-4.61z"/><path d="m15.29 16.71 1.42-1.42-3.71-3.7v-4.59h-2v5a1 1 0 0 0 .29.71z"/></g></svg>